<svg xmlns="http://www.w3.org/2000/svg" xmlns:xlink="http://www.w3.org/1999/xlink" width="500" zoomAndPan="magnify" viewBox="0 0 375 374.999991" height="500" preserveAspectRatio="xMidYMid meet" version="1.0"><defs><g/><clipPath id="id1"><path d="M 17.316406 15.917969 L 357.816406 15.917969 L 357.816406 195 L 17.316406 195 Z M 17.316406 15.917969 " clip-rule="nonzero"/></clipPath><clipPath id="id2"><path d="M 140 251 L 224 251 L 224 304.667969 L 140 304.667969 Z M 140 251 " clip-rule="nonzero"/></clipPath></defs><g clip-path="url(#id1)"><path fill="#d2d3d5" d="M 279.777344 99.570312 C 316.410156 80.460938 345.738281 63.367188 357.816406 53.871094 C 333.144531 67.625 306.632812 80.519531 278.339844 92.433594 C 277.996094 92.605469 277.652344 92.722656 277.304688 92.894531 C 273.222656 94.621094 269.140625 96.289062 264.941406 97.957031 C 262.929688 98.765625 260.570312 99.6875 257.867188 100.722656 C 228.597656 111.886719 160.910156 134.96875 110.9375 145.847656 C 103.171875 147.515625 95.871094 148.957031 89.140625 149.933594 C 58.089844 154.652344 40.777344 151.027344 58.03125 130.191406 C 58.316406 129.847656 58.605469 129.5 58.894531 129.15625 C 58.433594 129.269531 57.972656 129.441406 57.511719 129.617188 C 35.601562 137.214844 28.988281 170.710938 70.683594 164.898438 C 78.503906 163.746094 86.324219 162.367188 94.085938 160.8125 C 101.507812 159.316406 108.925781 157.703125 116.285156 155.863281 C 151.019531 147.34375 185.179688 135.429688 217.84375 122.074219 C 210.078125 125.585938 164.765625 146.25 120.253906 161.617188 C 112.949219 164.152344 105.703125 166.511719 98.6875 168.640625 C 54.0625 182.167969 17.085938 186.253906 30.082031 156.265625 C -3.386719 201.734375 32.441406 201.734375 91.269531 182.511719 C 95.8125 181.015625 100.527344 179.402344 105.300781 177.734375 C 110.535156 175.894531 115.941406 173.878906 121.402344 171.804688 C 123.300781 171.058594 125.257812 170.308594 127.210938 169.5625 C 169.363281 153.214844 217.324219 131.054688 259.019531 110.046875 C 266.089844 106.476562 272.992188 102.910156 279.664062 99.457031 Z M 105.242188 103.542969 C 110.820312 66.53125 142.507812 37.984375 180.808594 37.695312 L 181.441406 37.695312 C 209.847656 37.695312 234.75 52.832031 248.320312 75.394531 C 251.886719 74.359375 255.453125 73.265625 258.960938 72.171875 C 262.46875 71.078125 265.976562 69.984375 269.484375 68.835938 C 252.808594 37.40625 219.566406 15.9375 181.382812 15.9375 L 180.636719 15.9375 C 130.144531 16.285156 88.683594 54.90625 83.21875 104.175781 C 82.988281 106.363281 82.816406 108.550781 82.703125 110.792969 C 82.644531 112.519531 82.585938 114.304688 82.585938 116.03125 C 82.703125 122.9375 83.507812 129.789062 85.058594 136.40625 C 86.839844 136.234375 88.683594 136.121094 90.464844 135.945312 C 95.753906 135.429688 101.21875 134.738281 106.738281 133.933594 C 149.238281 127.773438 198.40625 113.210938 254.300781 90.246094 C 254.53125 90.132812 254.820312 90.015625 255.050781 89.957031 C 259.019531 88.347656 262.984375 86.675781 267.070312 84.949219 C 269.714844 83.800781 272.417969 82.648438 275.121094 81.496094 C 296.28125 72.289062 318.421875 61.925781 341.425781 50.472656 C 317.386719 59.625 294.386719 67.742188 272.417969 74.820312 C 268.5625 76.085938 264.710938 77.296875 260.914062 78.445312 C 257.753906 79.425781 254.648438 80.402344 251.542969 81.324219 C 250.046875 81.785156 248.609375 82.1875 247.113281 82.648438 C 192.941406 98.648438 145.382812 107.800781 104.554688 110.160156 C 104.726562 107.917969 104.957031 105.671875 105.242188 103.484375 Z M 105.242188 103.542969 " fill-opacity="1" fill-rule="evenodd"/></g><path fill="#004aad" d="M 279.949219 120.117188 C 272.074219 125.644531 264.078125 131.167969 256.085938 136.582031 C 252.578125 148.496094 246.25 159.488281 237.625 168.351562 C 224.339844 182.050781 215.773438 199.375 212.839844 218.199219 C 212.609375 219.75 211.058594 221.363281 209.042969 221.363281 C 155.101562 221.363281 208.585938 221.363281 154.585938 221.363281 C 152.917969 221.363281 151.078125 220.441406 150.789062 218.253906 C 149.871094 212.328125 148.375 206.457031 146.304688 200.816406 C 145.554688 198.742188 144.695312 196.671875 143.832031 194.65625 C 175.171875 180.324219 213.359375 157.761719 258.269531 127.082031 C 264.136719 123.113281 270.058594 118.96875 276.15625 114.707031 C 277.707031 113.613281 279.316406 112.464844 280.929688 111.371094 C 283.746094 109.414062 286.5625 107.398438 289.4375 105.328125 C 294.386719 101.816406 299.386719 98.1875 304.449219 94.503906 C 298.8125 97.671875 293.292969 100.777344 287.886719 103.773438 C 285.527344 105.097656 283.113281 106.363281 280.753906 107.6875 C 278.914062 108.664062 277.074219 109.699219 275.234375 110.679688 C 269.773438 113.613281 264.421875 116.492188 259.132812 119.253906 C 208.527344 145.90625 166.257812 164.726562 132.328125 175.605469 C 127.210938 177.214844 122.265625 178.714844 117.550781 179.980469 C 114.675781 180.785156 111.855469 181.476562 109.097656 182.109375 C 109.558594 182.625 110.015625 183.085938 110.476562 183.546875 C 116.054688 189.304688 120.597656 196.09375 123.875 203.40625 C 124.796875 205.421875 125.601562 207.492188 126.347656 209.5625 C 127.671875 213.476562 128.707031 217.507812 129.339844 221.59375 C 131.179688 234.140625 141.875 243.179688 154.585938 243.179688 L 209.101562 243.179688 C 221.582031 243.179688 232.390625 233.910156 234.347656 221.59375 C 236.53125 207.089844 243.144531 193.964844 253.152344 183.605469 C 269.773438 166.566406 279.664062 143.429688 280.8125 119.542969 C 280.527344 119.773438 280.179688 119.945312 279.894531 120.175781 Z M 279.949219 120.117188 " fill-opacity="1" fill-rule="evenodd"/><g clip-path="url(#id2)"><path fill="#004aad" d="M 216.691406 251.753906 L 146.9375 251.753906 C 143.199219 251.753906 140.152344 255.09375 140.152344 259.121094 L 140.152344 266.203125 C 140.152344 270.230469 143.199219 273.570312 146.9375 273.570312 L 216.691406 273.570312 C 220.429688 273.570312 223.480469 270.230469 223.480469 266.203125 L 223.480469 259.121094 C 223.480469 255.09375 220.429688 251.753906 216.691406 251.753906 Z M 207.953125 282.894531 L 155.679688 282.894531 C 151.941406 282.894531 148.890625 286.230469 148.890625 290.261719 L 148.890625 297.339844 C 148.890625 301.371094 151.941406 304.707031 155.679688 304.707031 L 207.953125 304.707031 C 211.691406 304.707031 214.738281 301.371094 214.738281 297.339844 L 214.738281 290.261719 C 214.738281 286.230469 211.691406 282.894531 207.953125 282.894531 Z M 207.953125 282.894531 " fill-opacity="1" fill-rule="evenodd"/></g><g fill="#6b99d6" fill-opacity="1"><g transform="translate(6.893009, 347.114538)"><g><path d="M 3.46875 -34.609375 L 19.828125 -34.609375 C 23.722656 -34.609375 26.816406 -33.828125 29.109375 -32.265625 C 31.398438 -30.703125 32.546875 -28.601562 32.546875 -25.96875 C 32.546875 -24.15625 32.015625 -22.5625 30.953125 -21.1875 C 29.898438 -19.820312 28.453125 -18.875 26.609375 -18.34375 C 28.785156 -17.914062 30.515625 -16.910156 31.796875 -15.328125 C 33.085938 -13.742188 33.734375 -11.832031 33.734375 -9.59375 C 33.734375 -6.65625 32.535156 -4.320312 30.140625 -2.59375 C 27.753906 -0.863281 24.515625 0 20.421875 0 L 3.46875 0 Z M 12.21875 -27.890625 L 12.21875 -20.765625 L 19.34375 -20.765625 C 20.625 -20.765625 21.644531 -21.085938 22.40625 -21.734375 C 23.164062 -22.378906 23.546875 -23.257812 23.546875 -24.375 C 23.546875 -25.46875 23.164062 -26.328125 22.40625 -26.953125 C 21.644531 -27.578125 20.625 -27.890625 19.34375 -27.890625 Z M 12.21875 -14.4375 L 12.21875 -6.78125 L 19.34375 -6.78125 C 20.988281 -6.78125 22.28125 -7.125 23.21875 -7.8125 C 24.15625 -8.507812 24.625 -9.46875 24.625 -10.6875 C 24.625 -11.832031 24.15625 -12.742188 23.21875 -13.421875 C 22.28125 -14.097656 20.988281 -14.4375 19.34375 -14.4375 Z M 12.21875 -14.4375 "/></g></g></g><g fill="#6b99d6" fill-opacity="1"><g transform="translate(42.252, 347.114538)"><g><path d="M 15.78125 -26.953125 C 20.125 -26.953125 23.628906 -25.707031 26.296875 -23.21875 C 28.972656 -20.726562 30.3125 -17.4375 30.3125 -13.34375 C 30.3125 -9.257812 28.972656 -5.960938 26.296875 -3.453125 C 23.628906 -0.953125 20.125 0.296875 15.78125 0.296875 C 11.394531 0.296875 7.863281 -0.953125 5.1875 -3.453125 C 2.519531 -5.960938 1.1875 -9.257812 1.1875 -13.34375 C 1.1875 -17.4375 2.519531 -20.726562 5.1875 -23.21875 C 7.863281 -25.707031 11.394531 -26.953125 15.78125 -26.953125 Z M 15.78125 -20.171875 C 14 -20.171875 12.554688 -19.523438 11.453125 -18.234375 C 10.347656 -16.953125 9.796875 -15.289062 9.796875 -13.25 C 9.796875 -11.175781 10.347656 -9.503906 11.453125 -8.234375 C 12.554688 -6.960938 14 -6.328125 15.78125 -6.328125 C 17.519531 -6.328125 18.941406 -6.960938 20.046875 -8.234375 C 21.148438 -9.503906 21.703125 -11.175781 21.703125 -13.25 C 21.703125 -15.289062 21.148438 -16.953125 20.046875 -18.234375 C 18.941406 -19.523438 17.519531 -20.171875 15.78125 -20.171875 Z M 15.78125 -20.171875 "/></g></g></g><g fill="#6b99d6" fill-opacity="1"><g transform="translate(73.753646, 347.114538)"><g><path d="M 12.21875 0 L 3.65625 0 L 3.65625 -36.6875 L 12.21875 -36.6875 Z M 12.21875 0 "/></g></g></g><g fill="#6b99d6" fill-opacity="1"><g transform="translate(89.628099, 347.114538)"><g><path d="M 30.265625 -36.6875 L 30.265625 0 L 21.703125 0 L 21.703125 -3.515625 C 19.765625 -0.941406 17.097656 0.34375 13.703125 0.34375 C 9.941406 0.34375 6.921875 -0.921875 4.640625 -3.453125 C 2.367188 -5.992188 1.234375 -9.328125 1.234375 -13.453125 C 1.234375 -17.535156 2.351562 -20.8125 4.59375 -23.28125 C 6.84375 -25.757812 9.8125 -27 13.5 -27 C 17.03125 -27 19.765625 -25.710938 21.703125 -23.140625 L 21.703125 -36.6875 Z M 11.46875 -8.203125 C 12.5625 -6.921875 14 -6.28125 15.78125 -6.28125 C 17.5625 -6.28125 18.992188 -6.921875 20.078125 -8.203125 C 21.160156 -9.492188 21.703125 -11.175781 21.703125 -13.25 C 21.703125 -15.289062 21.160156 -16.953125 20.078125 -18.234375 C 18.992188 -19.523438 17.5625 -20.171875 15.78125 -20.171875 C 14 -20.171875 12.5625 -19.535156 11.46875 -18.265625 C 10.382812 -17.003906 9.828125 -15.332031 9.796875 -13.25 C 9.828125 -11.175781 10.382812 -9.492188 11.46875 -8.203125 Z M 11.46875 -8.203125 "/></g></g></g><g fill="#6b99d6" fill-opacity="1"><g transform="translate(123.552951, 347.114538)"><g/></g></g><g fill="#6b99d6" fill-opacity="1"><g transform="translate(135.026076, 347.114538)"><g><path d="M 35.40625 0 L 27.640625 0 L 11.71875 -21.3125 L 11.71875 0 L 3.46875 0 L 3.46875 -34.609375 L 11.21875 -34.609375 L 27.203125 -13.25 L 27.203125 -34.609375 L 35.40625 -34.609375 Z M 35.40625 0 "/></g></g></g><g fill="#6b99d6" fill-opacity="1"><g transform="translate(173.89624, 347.114538)"><g><path d="M 29.375 -26.65625 L 29.375 0 L 20.8125 0 L 20.8125 -4.40625 C 19 -1.238281 16.117188 0.34375 12.171875 0.34375 C 9.265625 0.34375 6.945312 -0.578125 5.21875 -2.421875 C 3.488281 -4.265625 2.625 -6.738281 2.625 -9.84375 L 2.625 -26.65625 L 11.171875 -26.65625 L 11.171875 -12.265625 C 11.171875 -10.679688 11.570312 -9.4375 12.375 -8.53125 C 13.1875 -7.625 14.269531 -7.171875 15.625 -7.171875 C 17.238281 -7.203125 18.503906 -7.800781 19.421875 -8.96875 C 20.347656 -10.144531 20.8125 -11.65625 20.8125 -13.5 L 20.8125 -26.65625 Z M 29.375 -26.65625 "/></g></g></g><g fill="#6b99d6" fill-opacity="1"><g transform="translate(206.683675, 347.114538)"><g><path d="M 39.015625 -27.046875 C 41.953125 -27.046875 44.285156 -26.113281 46.015625 -24.25 C 47.742188 -22.394531 48.609375 -19.914062 48.609375 -16.8125 L 48.609375 0 L 40.109375 0 L 40.109375 -14.4375 C 40.109375 -16.019531 39.695312 -17.265625 38.875 -18.171875 C 38.050781 -19.078125 36.925781 -19.53125 35.5 -19.53125 C 33.925781 -19.5 32.664062 -18.894531 31.71875 -17.71875 C 30.78125 -16.550781 30.3125 -15.046875 30.3125 -13.203125 L 30.3125 0 L 21.765625 0 L 21.765625 -14.4375 C 21.765625 -16.019531 21.359375 -17.265625 20.546875 -18.171875 C 19.742188 -19.078125 18.628906 -19.53125 17.203125 -19.53125 C 15.585938 -19.5 14.300781 -18.890625 13.34375 -17.703125 C 12.394531 -16.515625 11.921875 -15.015625 11.921875 -13.203125 L 11.921875 0 L 3.40625 0 L 3.40625 -26.65625 L 11.921875 -26.65625 L 11.921875 -22.25 C 13.734375 -25.382812 16.664062 -26.984375 20.71875 -27.046875 C 22.863281 -27.046875 24.71875 -26.507812 26.28125 -25.4375 C 27.851562 -24.375 28.96875 -22.898438 29.625 -21.015625 C 31.375 -24.972656 34.503906 -26.984375 39.015625 -27.046875 Z M 39.015625 -27.046875 "/></g></g></g><g fill="#6b99d6" fill-opacity="1"><g transform="translate(257.96657, 347.114538)"><g><path d="M 20.171875 -26.953125 C 23.929688 -26.953125 26.957031 -25.691406 29.25 -23.171875 C 31.539062 -20.648438 32.6875 -17.328125 32.6875 -13.203125 C 32.6875 -9.148438 31.566406 -5.882812 29.328125 -3.40625 C 27.085938 -0.9375 24.101562 0.296875 20.375 0.296875 C 16.875 0.296875 14.15625 -0.988281 12.21875 -3.5625 L 12.21875 0 L 3.65625 0 L 3.65625 -36.6875 L 12.21875 -36.6875 L 12.21875 -23.140625 C 14.195312 -25.679688 16.847656 -26.953125 20.171875 -26.953125 Z M 18.09375 -6.484375 C 19.875 -6.484375 21.316406 -7.132812 22.421875 -8.4375 C 23.523438 -9.738281 24.078125 -11.410156 24.078125 -13.453125 C 24.078125 -15.492188 23.523438 -17.15625 22.421875 -18.4375 C 21.316406 -19.726562 19.875 -20.375 18.09375 -20.375 C 16.382812 -20.375 14.976562 -19.726562 13.875 -18.4375 C 12.769531 -17.15625 12.21875 -15.492188 12.21875 -13.453125 C 12.21875 -11.367188 12.757812 -9.6875 13.84375 -8.40625 C 14.9375 -7.125 16.351562 -6.484375 18.09375 -6.484375 Z M 18.09375 -6.484375 "/></g></g></g><g fill="#6b99d6" fill-opacity="1"><g transform="translate(291.841972, 347.114538)"><g><path d="M 15.078125 -26.953125 C 19.691406 -26.953125 23.160156 -25.535156 25.484375 -22.703125 C 27.816406 -19.867188 28.832031 -15.976562 28.53125 -11.03125 L 9.796875 -11.03125 C 10.222656 -9.445312 10.976562 -8.222656 12.0625 -7.359375 C 13.15625 -6.503906 14.492188 -6.078125 16.078125 -6.078125 C 18.515625 -6.078125 20.640625 -6.984375 22.453125 -8.796875 L 26.953125 -4.40625 C 24.085938 -1.269531 20.210938 0.296875 15.328125 0.296875 C 11.015625 0.296875 7.578125 -0.9375 5.015625 -3.40625 C 2.460938 -5.882812 1.1875 -9.164062 1.1875 -13.25 C 1.1875 -17.375 2.460938 -20.6875 5.015625 -23.1875 C 7.578125 -25.695312 10.929688 -26.953125 15.078125 -26.953125 Z M 9.640625 -15.625 L 20.328125 -15.625 C 20.328125 -17.238281 19.851562 -18.539062 18.90625 -19.53125 C 17.96875 -20.519531 16.726562 -21.015625 15.1875 -21.015625 C 13.726562 -21.015625 12.503906 -20.523438 11.515625 -19.546875 C 10.523438 -18.578125 9.898438 -17.269531 9.640625 -15.625 Z M 9.640625 -15.625 "/></g></g></g><g fill="#6b99d6" fill-opacity="1"><g transform="translate(321.612744, 347.114538)"><g><path d="M 11.96875 -26.65625 L 11.96875 -22.15625 C 13.84375 -25.351562 16.726562 -26.984375 20.625 -27.046875 L 20.625 -19.34375 C 18.1875 -19.570312 16.191406 -19.164062 14.640625 -18.125 C 13.085938 -17.082031 12.195312 -15.609375 11.96875 -13.703125 L 11.96875 0 L 3.40625 0 L 3.40625 -26.65625 Z M 11.96875 -26.65625 "/></g></g></g><g fill="#6b99d6" fill-opacity="1"><g transform="translate(342.729244, 347.114538)"><g><path d="M 12.953125 -27.046875 C 16.878906 -27.046875 20.539062 -26.039062 23.9375 -24.03125 L 21.015625 -18.5 C 17.722656 -20.28125 14.921875 -21.171875 12.609375 -21.171875 C 10.859375 -21.171875 9.984375 -20.5625 9.984375 -19.34375 C 9.984375 -18.675781 10.460938 -18.117188 11.421875 -17.671875 C 12.378906 -17.234375 13.550781 -16.832031 14.9375 -16.46875 C 16.320312 -16.101562 17.695312 -15.648438 19.0625 -15.109375 C 20.425781 -14.566406 21.585938 -13.703125 22.546875 -12.515625 C 23.503906 -11.328125 23.984375 -9.875 23.984375 -8.15625 C 23.984375 -5.488281 22.941406 -3.40625 20.859375 -1.90625 C 18.785156 -0.40625 16.085938 0.34375 12.765625 0.34375 C 8.046875 0.34375 4.054688 -0.90625 0.796875 -3.40625 L 3.515625 -8.859375 C 6.640625 -6.640625 9.785156 -5.53125 12.953125 -5.53125 C 14.898438 -5.53125 15.875 -6.144531 15.875 -7.375 C 15.875 -8.0625 15.40625 -8.632812 14.46875 -9.09375 C 13.53125 -9.5625 12.382812 -9.972656 11.03125 -10.328125 C 9.675781 -10.691406 8.320312 -11.144531 6.96875 -11.6875 C 5.613281 -12.238281 4.46875 -13.085938 3.53125 -14.234375 C 2.59375 -15.390625 2.125 -16.84375 2.125 -18.59375 C 2.125 -21.257812 3.128906 -23.332031 5.140625 -24.8125 C 7.148438 -26.300781 9.753906 -27.046875 12.953125 -27.046875 Z M 12.953125 -27.046875 "/></g></g></g><path stroke-linecap="butt" transform="matrix(0.75, 0, 0, 0.75, -2.95074, 315.61454)" fill="none" stroke-linejoin="miter" d="M 17.746822 -4.15272 L 39.559323 -4.15272 C 44.752032 -4.15272 48.877032 -3.105845 51.923907 -1.017303 C 54.981199 1.06603 56.512449 3.868113 56.512449 7.388947 C 56.512449 9.800406 55.809324 11.920197 54.403074 13.748322 C 52.996824 15.571239 51.064532 16.831656 48.606199 17.529573 C 51.502032 18.107698 53.804116 19.456656 55.512449 21.57124 C 57.231199 23.675406 58.090574 26.217073 58.090574 29.201448 C 58.090574 33.118115 56.496824 36.232699 53.309324 38.539991 C 50.13224 40.847283 45.814532 41.998324 40.361407 41.998324 L 17.746822 41.998324 Z M 29.418697 4.810822 L 29.418697 14.310823 L 38.91349 14.310823 C 40.621823 14.310823 41.981198 13.878531 42.986407 13.024364 C 44.00724 12.164989 44.517657 10.987906 44.517657 9.498322 C 44.517657 8.050405 44.00724 6.904572 42.986407 6.06603 C 41.981198 5.232697 40.621823 4.810822 38.91349 4.810822 Z M 29.418697 22.748323 L 29.418697 32.967074 L 38.91349 32.967074 C 41.106198 32.967074 42.824948 32.50874 44.080157 31.581657 C 45.340574 30.659782 45.965574 29.38374 45.965574 27.753532 C 45.965574 26.217073 45.340574 24.998323 44.080157 24.097281 C 42.824948 23.19624 41.106198 22.748323 38.91349 22.748323 Z M 81.309326 6.06603 C 87.106201 6.06603 91.788493 7.727489 95.350993 11.039989 C 98.913494 14.357698 100.694744 18.743114 100.694744 24.19624 C 100.694744 29.649365 98.913494 34.045199 95.350993 37.394157 C 91.788493 40.732699 87.106201 42.404574 81.309326 42.404574 C 75.460367 42.404574 70.757242 40.732699 67.194742 37.394157 C 63.627033 34.045199 61.845783 29.649365 61.845783 24.19624 C 61.845783 18.743114 63.627033 14.357698 67.194742 11.039989 C 70.757242 7.727489 75.460367 6.06603 81.309326 6.06603 Z M 81.309326 15.097281 C 78.929117 15.097281 77.002034 15.956656 75.533284 17.675406 C 74.059325 19.38374 73.32495 21.597281 73.32495 24.32124 C 73.32495 27.092073 74.059325 29.326448 75.533284 31.019157 C 77.002034 32.717074 78.929117 33.566032 81.309326 33.566032 C 83.642659 33.566032 85.538493 32.717074 87.012451 31.019157 C 88.481201 29.326448 89.215576 27.092073 89.215576 24.32124 C 89.215576 21.597281 88.481201 19.38374 87.012451 17.675406 C 85.538493 15.956656 83.642659 15.097281 81.309326 15.097281 Z M 118.564537 41.998324 L 107.147869 41.998324 L 107.147869 -6.923554 L 118.564537 -6.923554 Z M 163.798915 -6.923554 L 163.798915 41.998324 L 152.382247 41.998324 L 152.382247 37.316032 C 149.788497 40.748324 146.231205 42.467074 141.710371 42.467074 C 136.699955 42.467074 132.673913 40.774366 129.637454 37.394157 C 126.600996 34.003532 125.080162 29.560824 125.080162 24.066031 C 125.080162 18.612906 126.569746 14.243114 129.554121 10.946239 C 132.548913 7.649364 136.512454 6.00353 141.43433 6.00353 C 146.137455 6.00353 149.788497 7.717072 152.382247 11.138947 L 152.382247 -6.923554 Z M 138.731205 31.050407 C 140.179121 32.769157 142.09058 33.628532 144.46558 33.628532 C 146.845789 33.628532 148.762455 32.769157 150.210372 31.050407 C 151.658289 29.336865 152.382247 27.092073 152.382247 24.32124 C 152.382247 21.597281 151.658289 19.38374 150.210372 17.675406 C 148.762455 15.956656 146.845789 15.097281 144.46558 15.097281 C 142.09058 15.097281 140.179121 15.946239 138.731205 17.644156 C 137.283288 19.326448 136.538496 21.555615 136.496829 24.32124 C 136.538496 27.092073 137.283288 29.336865 138.731205 31.050407 Z M 231.184336 41.998324 L 220.835377 41.998324 L 199.601 13.586864 L 199.601 41.998324 L 188.590583 41.998324 L 188.590583 -4.15272 L 198.939542 -4.15272 L 220.241627 24.32124 L 220.241627 -4.15272 L 231.184336 -4.15272 Z M 274.965589 6.456655 L 274.965589 41.998324 L 263.548921 41.998324 L 263.548921 36.123324 C 261.137463 40.352491 257.293712 42.467074 252.022879 42.467074 C 248.147878 42.467074 245.059337 41.237908 242.752045 38.779574 C 240.444753 36.310824 239.288503 33.013949 239.288503 28.878532 L 239.288503 6.456655 L 250.70517 6.456655 L 250.70517 25.644157 C 250.70517 27.75874 251.241629 29.420198 252.314545 30.63374 C 253.387462 31.836865 254.824962 32.435824 256.627046 32.435824 C 258.783296 32.394157 260.476004 31.597282 261.699963 30.03999 C 262.934338 28.472282 263.548921 26.461865 263.548921 24.003531 L 263.548921 6.456655 Z M 331.543717 5.925405 C 335.449968 5.925405 338.559343 7.170197 340.866635 9.659781 C 343.173926 12.138947 344.324968 15.441031 344.324968 19.576448 L 344.324968 41.998324 L 332.991634 41.998324 L 332.991634 22.748323 C 332.991634 20.63374 332.439551 18.972281 331.335384 17.769156 C 330.241634 16.560823 328.746842 15.951448 326.856217 15.951448 C 324.746842 15.993114 323.059342 16.800406 321.804133 18.368114 C 320.559342 19.925406 319.934342 21.930615 319.934342 24.388948 L 319.934342 41.998324 L 308.522882 41.998324 L 308.522882 22.748323 C 308.522882 20.63374 307.986424 18.972281 306.913507 17.769156 C 305.840591 16.560823 304.351007 15.951448 302.455174 15.951448 C 300.304132 15.993114 298.595798 16.810823 297.319757 18.399364 C 296.038507 19.97749 295.40309 21.972281 295.40309 24.388948 L 295.40309 41.998324 L 284.069756 41.998324 L 284.069756 6.456655 L 295.40309 6.456655 L 295.40309 12.331656 C 297.814548 8.154572 301.731215 6.019155 307.137466 5.925405 C 309.991633 5.925405 312.465591 6.644155 314.559341 8.081655 C 316.653091 9.508739 318.132258 11.472281 319.00205 13.972281 C 321.340592 8.701447 325.522884 6.019155 331.543717 5.925405 Z M 374.788512 6.06603 C 379.804137 6.06603 383.830179 7.748322 386.882263 11.107697 C 389.939554 14.467073 391.470805 18.894156 391.470805 24.388948 C 391.470805 29.795199 389.970804 34.154574 386.976013 37.461866 C 383.991637 40.753533 380.022887 42.404574 375.064553 42.404574 C 370.397887 42.404574 366.767678 40.685824 364.179136 37.248324 L 364.179136 41.998324 L 352.767677 41.998324 L 352.767677 -6.923554 L 364.179136 -6.923554 L 364.179136 11.138947 C 366.809345 7.758739 370.345803 6.06603 374.788512 6.06603 Z M 372.022887 33.35249 C 374.392678 33.35249 376.314554 32.493115 377.783304 30.763949 C 379.267679 29.024365 380.007262 26.78999 380.007262 24.066031 C 380.007262 21.342073 379.267679 19.118114 377.783304 17.399364 C 376.314554 15.685823 374.392678 14.826448 372.022887 14.826448 C 369.736428 14.826448 367.85622 15.685823 366.38747 17.399364 C 364.918719 19.118114 364.179136 21.342073 364.179136 24.066031 C 364.179136 26.836865 364.908303 29.076448 366.35622 30.795199 C 367.804136 32.503532 369.694761 33.35249 372.022887 33.35249 Z M 413.163514 6.06603 C 419.324973 6.06603 423.949973 7.956655 427.043724 11.732697 C 430.142682 15.513948 431.496849 20.701448 431.095807 27.300407 L 406.111431 27.300407 C 406.684347 29.404573 407.689556 31.029574 409.137472 32.180615 C 410.601014 33.316032 412.382264 33.88374 414.486431 33.88374 C 417.736431 33.88374 420.574973 32.680615 423.002057 30.263949 L 428.99164 36.123324 C 425.168723 40.310824 420.007265 42.404574 413.502056 42.404574 C 407.736431 42.404574 403.153097 40.753533 399.73643 37.461866 C 396.335388 34.154574 394.632263 29.774365 394.632263 24.32124 C 394.632263 18.826448 396.335388 14.409781 399.73643 11.076447 C 403.153097 7.737905 407.627056 6.06603 413.163514 6.06603 Z M 405.918722 21.170198 L 420.153098 21.170198 C 420.153098 19.008739 419.52289 17.274364 418.267681 15.951448 C 417.02289 14.633739 415.366639 13.972281 413.293723 13.972281 C 411.361431 13.972281 409.736431 14.623323 408.413514 15.920198 C 407.095806 17.217073 406.262472 18.967073 405.918722 21.170198 Z M 448.705183 6.456655 L 448.705183 12.456656 C 451.2156 8.196239 455.064559 6.019155 460.246851 5.925405 L 460.246851 16.211864 C 456.996851 15.909781 454.335392 16.451448 452.262475 17.836864 C 450.199975 19.222281 449.017683 21.185823 448.705183 23.72749 L 448.705183 41.998324 L 437.309349 41.998324 L 437.309349 6.456655 Z M 478.179144 5.925405 C 483.418727 5.925405 488.293728 7.263947 492.814561 9.946239 L 488.934353 17.336864 C 484.533311 14.967073 480.793727 13.779572 477.715602 13.779572 C 475.382268 13.779572 474.22081 14.586864 474.22081 16.211864 C 474.22081 17.092073 474.856227 17.831656 476.137477 18.430614 C 477.413519 19.024364 478.976019 19.560823 480.819769 20.03999 C 482.668727 20.524365 484.502061 21.128531 486.324977 21.862906 C 488.153103 22.581656 489.699978 23.732698 490.981228 25.32124 C 492.25727 26.899365 492.892686 28.831657 492.892686 31.118115 C 492.892686 34.680616 491.507269 37.467074 488.726019 39.472282 C 485.955186 41.467074 482.356227 42.467074 477.923935 42.467074 C 471.632268 42.467074 466.314559 40.795199 461.970809 37.446241 L 465.590601 30.201449 C 469.767685 33.138949 473.960393 34.612907 478.179144 34.612907 C 480.778102 34.612907 482.074977 33.800407 482.074977 32.180615 C 482.074977 31.25874 481.449977 30.487907 480.194769 29.878532 C 478.93956 29.253532 477.40831 28.701448 475.606227 28.217073 C 473.804143 27.737907 471.996852 27.13374 470.194768 26.41499 C 468.403101 25.685823 466.87706 24.555615 465.621851 23.019156 C 464.366643 21.472281 463.741643 19.534781 463.741643 17.206656 C 463.741643 13.644156 465.080184 10.878531 467.762476 8.899364 C 470.449976 6.914989 473.918727 5.925405 478.179144 5.925405 Z M 478.179144 5.925405 " stroke="#004aad" stroke-width="4.533499" stroke-opacity="1" stroke-miterlimit="4"/></svg>