<svg xmlns="http://www.w3.org/2000/svg" xmlns:xlink="http://www.w3.org/1999/xlink" width="500" zoomAndPan="magnify" viewBox="0 0 375 374.999991" height="500" preserveAspectRatio="xMidYMid meet" version="1.0"><defs><g/><clipPath id="id1"><path d="M 109.847656 79.152344 L 265.097656 79.152344 L 265.097656 161 L 109.847656 161 Z M 109.847656 79.152344 " clip-rule="nonzero"/></clipPath><clipPath id="id2"><path d="M 165 186 L 204 186 L 204 210.402344 L 165 210.402344 Z M 165 186 " clip-rule="nonzero"/></clipPath></defs><g clip-path="url(#id1)"><path fill="#d2d3d5" d="M 229.519531 117.175781 C 246.21875 108.492188 259.59375 100.722656 265.097656 96.402344 C 253.851562 102.65625 241.761719 108.515625 228.863281 113.933594 C 228.707031 114.011719 228.546875 114.0625 228.390625 114.140625 C 226.527344 114.925781 224.667969 115.6875 222.753906 116.445312 C 221.835938 116.8125 220.761719 117.230469 219.527344 117.699219 C 206.183594 122.777344 175.320312 133.265625 152.535156 138.210938 C 148.996094 138.972656 145.664062 139.625 142.597656 140.070312 C 128.4375 142.214844 120.546875 140.566406 128.414062 131.097656 C 128.542969 130.9375 128.675781 130.78125 128.804688 130.625 C 128.597656 130.675781 128.386719 130.757812 128.175781 130.835938 C 118.1875 134.289062 115.171875 149.515625 134.179688 146.871094 C 137.746094 146.347656 141.3125 145.722656 144.851562 145.015625 C 148.234375 144.335938 151.617188 143.601562 154.972656 142.765625 C 170.8125 138.890625 186.386719 133.476562 201.277344 127.40625 C 197.738281 129.003906 177.078125 138.394531 156.785156 145.382812 C 153.453125 146.53125 150.148438 147.605469 146.949219 148.574219 C 126.605469 154.722656 109.746094 156.578125 115.671875 142.949219 C 100.410156 163.617188 116.746094 163.617188 143.566406 154.878906 C 145.640625 154.199219 147.789062 153.464844 149.964844 152.707031 C 152.351562 151.871094 154.816406 150.953125 157.308594 150.011719 C 158.171875 149.671875 159.0625 149.332031 159.957031 148.992188 C 179.175781 141.5625 201.042969 131.488281 220.050781 121.9375 C 223.277344 120.316406 226.425781 118.695312 229.464844 117.125 Z M 149.941406 118.984375 C 152.484375 102.160156 166.929688 89.183594 184.394531 89.050781 L 184.679688 89.050781 C 197.632812 89.050781 208.988281 95.933594 215.175781 106.1875 C 216.800781 105.71875 218.425781 105.222656 220.027344 104.722656 C 221.625 104.226562 223.226562 103.730469 224.824219 103.207031 C 217.222656 88.921875 202.066406 79.164062 184.65625 79.164062 L 184.316406 79.164062 C 161.292969 79.320312 142.386719 96.875 139.898438 119.269531 C 139.792969 120.265625 139.714844 121.257812 139.660156 122.277344 C 139.636719 123.0625 139.609375 123.875 139.609375 124.660156 C 139.660156 127.800781 140.027344 130.914062 140.738281 133.921875 C 141.550781 133.84375 142.386719 133.789062 143.203125 133.710938 C 145.613281 133.476562 148.105469 133.164062 150.621094 132.796875 C 170 129.996094 192.417969 123.378906 217.902344 112.9375 C 218.007812 112.886719 218.136719 112.835938 218.242188 112.808594 C 220.050781 112.074219 221.863281 111.316406 223.722656 110.53125 C 224.929688 110.007812 226.160156 109.484375 227.394531 108.960938 C 237.042969 104.777344 247.136719 100.066406 257.625 94.859375 C 246.667969 99.019531 236.179688 102.710938 226.160156 105.925781 C 224.40625 106.503906 222.648438 107.050781 220.917969 107.574219 C 219.476562 108.019531 218.058594 108.464844 216.644531 108.882812 C 215.960938 109.09375 215.308594 109.277344 214.625 109.484375 C 189.925781 116.757812 168.242188 120.917969 149.625 121.992188 C 149.703125 120.972656 149.808594 119.949219 149.941406 118.957031 Z M 149.941406 118.984375 " fill-opacity="1" fill-rule="evenodd"/></g><path fill="#004aad" d="M 229.597656 126.515625 C 226.003906 129.027344 222.359375 131.539062 218.714844 134 C 217.117188 139.414062 214.230469 144.414062 210.296875 148.441406 C 204.242188 154.667969 200.335938 162.542969 198.996094 171.097656 C 198.894531 171.804688 198.183594 172.539062 197.265625 172.539062 C 172.671875 172.539062 197.058594 172.539062 172.4375 172.539062 C 171.675781 172.539062 170.835938 172.121094 170.707031 171.125 C 170.285156 168.429688 169.605469 165.761719 168.660156 163.199219 C 168.320312 162.253906 167.925781 161.3125 167.535156 160.398438 C 181.824219 153.882812 199.234375 143.628906 219.710938 129.683594 C 222.386719 127.878906 225.085938 125.996094 227.867188 124.058594 C 228.574219 123.5625 229.308594 123.039062 230.042969 122.539062 C 231.328125 121.652344 232.613281 120.734375 233.921875 119.792969 C 236.179688 118.199219 238.460938 116.550781 240.765625 114.875 C 238.195312 116.3125 235.679688 117.726562 233.214844 119.085938 C 232.140625 119.6875 231.039062 120.265625 229.964844 120.867188 C 229.125 121.3125 228.285156 121.78125 227.445312 122.226562 C 224.957031 123.5625 222.515625 124.871094 220.105469 126.125 C 197.03125 138.238281 177.757812 146.792969 162.289062 151.738281 C 159.957031 152.472656 157.699219 153.152344 155.550781 153.726562 C 154.238281 154.09375 152.957031 154.40625 151.695312 154.695312 C 151.90625 154.929688 152.117188 155.140625 152.324219 155.347656 C 154.871094 157.964844 156.941406 161.050781 158.433594 164.375 C 158.855469 165.289062 159.222656 166.234375 159.5625 167.175781 C 160.164062 168.953125 160.636719 170.785156 160.925781 172.640625 C 161.765625 178.347656 166.640625 182.453125 172.4375 182.453125 L 197.292969 182.453125 C 202.984375 182.453125 207.914062 178.242188 208.804688 172.640625 C 209.800781 166.050781 212.816406 160.085938 217.378906 155.375 C 224.957031 147.632812 229.464844 137.113281 229.988281 126.257812 C 229.859375 126.359375 229.703125 126.4375 229.570312 126.542969 Z M 229.597656 126.515625 " fill-opacity="1" fill-rule="evenodd"/><g clip-path="url(#id2)"><path fill="#004aad" d="M 200.753906 186.351562 L 168.949219 186.351562 C 167.246094 186.351562 165.855469 187.871094 165.855469 189.699219 L 165.855469 192.917969 C 165.855469 194.75 167.246094 196.265625 168.949219 196.265625 L 200.753906 196.265625 C 202.457031 196.265625 203.847656 194.75 203.847656 192.917969 L 203.847656 189.699219 C 203.847656 187.871094 202.457031 186.351562 200.753906 186.351562 Z M 196.769531 200.503906 L 172.933594 200.503906 C 171.230469 200.503906 169.839844 202.023438 169.839844 203.855469 L 169.839844 207.074219 C 169.839844 208.902344 171.230469 210.421875 172.933594 210.421875 L 196.769531 210.421875 C 198.472656 210.421875 199.863281 208.902344 199.863281 207.074219 L 199.863281 203.855469 C 199.863281 202.023438 198.472656 200.503906 196.769531 200.503906 Z M 196.769531 200.503906 " fill-opacity="1" fill-rule="evenodd"/></g><g fill="#004aad" fill-opacity="1"><g transform="translate(104.194669, 249.253428)"><g><path d="M 1.359375 -18.78125 L 7.1875 -18.78125 C 8.945312 -18.78125 10.347656 -18.40625 11.390625 -17.65625 C 12.441406 -16.90625 12.96875 -15.6875 12.96875 -14 C 12.96875 -12.113281 12.1875 -10.769531 10.625 -9.96875 C 13.300781 -9.5 14.640625 -7.921875 14.640625 -5.234375 C 14.640625 -3.660156 14.09375 -2.394531 13 -1.4375 C 11.90625 -0.476562 10.398438 0 8.484375 0 L 1.359375 0 Z M 5.640625 -11.421875 L 5.984375 -11.421875 C 6.941406 -11.421875 7.65625 -11.585938 8.125 -11.921875 C 8.59375 -12.265625 8.828125 -12.8125 8.828125 -13.5625 C 8.828125 -14.84375 7.878906 -15.484375 5.984375 -15.484375 L 5.640625 -15.484375 Z M 5.640625 -3.296875 L 6.984375 -3.296875 C 9.078125 -3.296875 10.125 -3.992188 10.125 -5.390625 C 10.125 -6.222656 9.863281 -6.820312 9.34375 -7.1875 C 8.820312 -7.550781 8.035156 -7.734375 6.984375 -7.734375 L 5.640625 -7.734375 Z M 5.640625 -3.296875 "/></g></g></g><g fill="#004aad" fill-opacity="1"><g transform="translate(119.346712, 249.253428)"><g><path d="M 2.46875 -1.390625 C 1.175781 -2.546875 0.53125 -4.023438 0.53125 -5.828125 C 0.53125 -7.628906 1.203125 -9.109375 2.546875 -10.265625 C 3.898438 -11.429688 5.570312 -12.015625 7.5625 -12.015625 C 9.519531 -12.015625 11.171875 -11.429688 12.515625 -10.265625 C 13.859375 -9.097656 14.53125 -7.617188 14.53125 -5.828125 C 14.53125 -4.035156 13.875 -2.554688 12.5625 -1.390625 C 11.25 -0.234375 9.582031 0.34375 7.5625 0.34375 C 5.46875 0.34375 3.769531 -0.234375 2.46875 -1.390625 Z M 5.578125 -7.796875 C 5.054688 -7.285156 4.796875 -6.628906 4.796875 -5.828125 C 4.796875 -5.023438 5.046875 -4.367188 5.546875 -3.859375 C 6.054688 -3.347656 6.71875 -3.09375 7.53125 -3.09375 C 8.320312 -3.09375 8.972656 -3.347656 9.484375 -3.859375 C 9.992188 -4.378906 10.25 -5.035156 10.25 -5.828125 C 10.25 -6.628906 9.984375 -7.285156 9.453125 -7.796875 C 8.929688 -8.316406 8.289062 -8.578125 7.53125 -8.578125 C 6.757812 -8.578125 6.109375 -8.316406 5.578125 -7.796875 Z M 5.578125 -7.796875 "/></g></g></g><g fill="#004aad" fill-opacity="1"><g transform="translate(134.384985, 249.253428)"><g><path d="M 1.359375 0 L 1.359375 -19.578125 L 5.390625 -19.578125 L 5.390625 0 Z M 1.359375 0 "/></g></g></g><g fill="#004aad" fill-opacity="1"><g transform="translate(141.141969, 249.253428)"><g><path d="M 2.15625 -1.4375 C 1.070312 -2.632812 0.53125 -4.097656 0.53125 -5.828125 C 0.53125 -7.554688 1.070312 -9.019531 2.15625 -10.21875 C 3.25 -11.414062 4.640625 -12.015625 6.328125 -12.015625 C 7.878906 -12.015625 9.15625 -11.53125 10.15625 -10.5625 L 10.15625 -19.578125 L 14.1875 -19.578125 L 14.1875 0 L 10.203125 0 L 10.203125 -1.328125 L 10.15625 -1.328125 C 9.15625 -0.210938 7.878906 0.34375 6.328125 0.34375 C 4.640625 0.34375 3.25 -0.25 2.15625 -1.4375 Z M 5.578125 -7.796875 C 5.054688 -7.285156 4.796875 -6.628906 4.796875 -5.828125 C 4.796875 -5.023438 5.046875 -4.367188 5.546875 -3.859375 C 6.054688 -3.347656 6.71875 -3.09375 7.53125 -3.09375 C 8.320312 -3.09375 8.972656 -3.347656 9.484375 -3.859375 C 9.992188 -4.378906 10.25 -5.035156 10.25 -5.828125 C 10.25 -6.628906 9.984375 -7.285156 9.453125 -7.796875 C 8.929688 -8.316406 8.289062 -8.578125 7.53125 -8.578125 C 6.757812 -8.578125 6.109375 -8.316406 5.578125 -7.796875 Z M 5.578125 -7.796875 "/></g></g></g><g fill="#004aad" fill-opacity="1"><g transform="translate(156.680778, 249.253428)"><g/></g></g><g fill="#004aad" fill-opacity="1"><g transform="translate(162.89175, 249.253428)"><g><path d="M 5.640625 -11.65625 L 5.640625 0 L 1.359375 0 L 1.359375 -18.78125 L 5.640625 -18.78125 L 13.109375 -7.125 L 13.15625 -7.125 L 13.15625 -18.78125 L 17.4375 -18.78125 L 17.4375 0 L 13.15625 0 L 5.6875 -11.65625 Z M 5.640625 -11.65625 "/></g></g></g><g fill="#004aad" fill-opacity="1"><g transform="translate(181.683912, 249.253428)"><g><path d="M 5.171875 -11.671875 L 5.171875 -6.125 C 5.171875 -4.96875 5.34375 -4.144531 5.6875 -3.65625 C 6.039062 -3.175781 6.632812 -2.9375 7.46875 -2.9375 C 8.300781 -2.9375 8.890625 -3.175781 9.234375 -3.65625 C 9.585938 -4.144531 9.765625 -4.96875 9.765625 -6.125 L 9.765625 -11.671875 L 13.796875 -11.671875 L 13.796875 -5.140625 C 13.796875 -3.203125 13.289062 -1.800781 12.28125 -0.9375 C 11.269531 -0.0820312 9.664062 0.34375 7.46875 0.34375 C 5.269531 0.34375 3.664062 -0.0820312 2.65625 -0.9375 C 1.644531 -1.800781 1.140625 -3.203125 1.140625 -5.140625 L 1.140625 -11.671875 Z M 5.171875 -11.671875 "/></g></g></g><g fill="#004aad" fill-opacity="1"><g transform="translate(196.608436, 249.253428)"><g><path d="M 1.359375 0 L 1.359375 -11.671875 L 5.390625 -11.671875 L 5.390625 -10.453125 L 5.4375 -10.453125 C 6.488281 -11.492188 7.601562 -12.015625 8.78125 -12.015625 C 9.632812 -12.015625 10.429688 -11.835938 11.171875 -11.484375 C 11.921875 -11.140625 12.484375 -10.601562 12.859375 -9.875 C 14.046875 -11.300781 15.335938 -12.015625 16.734375 -12.015625 C 17.972656 -12.015625 19.039062 -11.664062 19.9375 -10.96875 C 20.832031 -10.269531 21.28125 -9.175781 21.28125 -7.6875 L 21.28125 0 L 17.25 0 L 17.25 -6.609375 C 17.25 -7.222656 17.078125 -7.738281 16.734375 -8.15625 C 16.398438 -8.570312 15.890625 -8.78125 15.203125 -8.78125 C 14.609375 -8.78125 14.15625 -8.601562 13.84375 -8.25 C 13.539062 -7.894531 13.375 -7.46875 13.34375 -6.96875 L 13.34375 0 L 9.3125 0 L 9.3125 -6.609375 C 9.3125 -7.222656 9.140625 -7.738281 8.796875 -8.15625 C 8.453125 -8.570312 7.941406 -8.78125 7.265625 -8.78125 C 6.640625 -8.78125 6.171875 -8.585938 5.859375 -8.203125 C 5.546875 -7.816406 5.390625 -7.359375 5.390625 -6.828125 L 5.390625 0 Z M 1.359375 0 "/></g></g></g><g fill="#004aad" fill-opacity="1"><g transform="translate(219.017979, 249.253428)"><g><path d="M 13.390625 -10.21875 C 14.484375 -9.019531 15.03125 -7.554688 15.03125 -5.828125 C 15.03125 -4.097656 14.484375 -2.632812 13.390625 -1.4375 C 12.296875 -0.25 10.90625 0.34375 9.21875 0.34375 C 7.664062 0.34375 6.390625 -0.210938 5.390625 -1.328125 L 5.34375 -1.328125 L 5.34375 0 L 1.359375 0 L 1.359375 -19.578125 L 5.390625 -19.578125 L 5.390625 -10.5625 C 6.390625 -11.53125 7.664062 -12.015625 9.21875 -12.015625 C 10.90625 -12.015625 12.296875 -11.414062 13.390625 -10.21875 Z M 10 -3.859375 C 10.5 -4.367188 10.75 -5.023438 10.75 -5.828125 C 10.75 -6.628906 10.484375 -7.285156 9.953125 -7.796875 C 9.429688 -8.316406 8.785156 -8.578125 8.015625 -8.578125 C 7.253906 -8.578125 6.609375 -8.316406 6.078125 -7.796875 C 5.554688 -7.285156 5.296875 -6.628906 5.296875 -5.828125 C 5.296875 -5.035156 5.550781 -4.378906 6.0625 -3.859375 C 6.570312 -3.347656 7.222656 -3.09375 8.015625 -3.09375 C 8.835938 -3.09375 9.5 -3.347656 10 -3.859375 Z M 10 -3.859375 "/></g></g></g><g fill="#004aad" fill-opacity="1"><g transform="translate(234.556788, 249.253428)"><g><path d="M 13.1875 -5.28125 L 4.71875 -5.28125 C 4.71875 -4.457031 4.984375 -3.847656 5.515625 -3.453125 C 6.046875 -3.066406 6.617188 -2.875 7.234375 -2.875 C 7.890625 -2.875 8.40625 -2.957031 8.78125 -3.125 C 9.164062 -3.300781 9.597656 -3.648438 10.078125 -4.171875 L 13 -2.703125 C 11.78125 -0.671875 9.757812 0.34375 6.9375 0.34375 C 5.175781 0.34375 3.664062 -0.257812 2.40625 -1.46875 C 1.15625 -2.675781 0.53125 -4.128906 0.53125 -5.828125 C 0.53125 -7.523438 1.15625 -8.976562 2.40625 -10.1875 C 3.664062 -11.40625 5.175781 -12.015625 6.9375 -12.015625 C 8.789062 -12.015625 10.296875 -11.476562 11.453125 -10.40625 C 12.617188 -9.34375 13.203125 -7.816406 13.203125 -5.828125 C 13.203125 -5.554688 13.195312 -5.375 13.1875 -5.28125 Z M 4.828125 -7.515625 L 9.265625 -7.515625 C 9.171875 -8.117188 8.929688 -8.582031 8.546875 -8.90625 C 8.160156 -9.238281 7.664062 -9.40625 7.0625 -9.40625 C 6.394531 -9.40625 5.863281 -9.226562 5.46875 -8.875 C 5.070312 -8.53125 4.859375 -8.078125 4.828125 -7.515625 Z M 4.828125 -7.515625 "/></g></g></g><g fill="#004aad" fill-opacity="1"><g transform="translate(248.275518, 249.253428)"><g><path d="M 1.359375 0 L 1.359375 -11.671875 L 5.390625 -11.671875 L 5.390625 -10 L 5.4375 -10 C 5.46875 -10.050781 5.515625 -10.125 5.578125 -10.21875 C 5.648438 -10.3125 5.800781 -10.472656 6.03125 -10.703125 C 6.257812 -10.929688 6.5 -11.132812 6.75 -11.3125 C 7.007812 -11.5 7.34375 -11.660156 7.75 -11.796875 C 8.164062 -11.941406 8.585938 -12.015625 9.015625 -12.015625 C 9.453125 -12.015625 9.882812 -11.953125 10.3125 -11.828125 C 10.738281 -11.710938 11.050781 -11.59375 11.25 -11.46875 L 11.5625 -11.296875 L 9.875 -7.875 C 9.375 -8.300781 8.675781 -8.515625 7.78125 -8.515625 C 7.300781 -8.515625 6.882812 -8.40625 6.53125 -8.1875 C 6.1875 -7.976562 5.941406 -7.722656 5.796875 -7.421875 C 5.648438 -7.117188 5.546875 -6.859375 5.484375 -6.640625 C 5.421875 -6.429688 5.390625 -6.265625 5.390625 -6.140625 L 5.390625 0 Z M 1.359375 0 "/></g></g></g><g fill="#004aad" fill-opacity="1"><g transform="translate(259.605418, 249.253428)"><g><path d="M 6.4375 -12.015625 C 7.101562 -12.015625 7.765625 -11.9375 8.421875 -11.78125 C 9.078125 -11.632812 9.5625 -11.488281 9.875 -11.34375 L 10.359375 -11.109375 L 9.03125 -8.46875 C 8.125 -8.957031 7.257812 -9.203125 6.4375 -9.203125 C 5.988281 -9.203125 5.664062 -9.148438 5.46875 -9.046875 C 5.28125 -8.953125 5.1875 -8.765625 5.1875 -8.484375 C 5.1875 -8.429688 5.191406 -8.375 5.203125 -8.3125 C 5.222656 -8.25 5.253906 -8.191406 5.296875 -8.140625 C 5.347656 -8.085938 5.390625 -8.039062 5.421875 -8 C 5.460938 -7.957031 5.53125 -7.914062 5.625 -7.875 C 5.71875 -7.832031 5.789062 -7.796875 5.84375 -7.765625 C 5.894531 -7.742188 5.976562 -7.710938 6.09375 -7.671875 C 6.21875 -7.628906 6.3125 -7.59375 6.375 -7.5625 C 6.4375 -7.539062 6.535156 -7.507812 6.671875 -7.46875 C 6.816406 -7.425781 6.929688 -7.394531 7.015625 -7.375 C 7.484375 -7.238281 7.890625 -7.085938 8.234375 -6.921875 C 8.585938 -6.753906 8.957031 -6.523438 9.34375 -6.234375 C 9.726562 -5.953125 10.023438 -5.585938 10.234375 -5.140625 C 10.453125 -4.703125 10.5625 -4.203125 10.5625 -3.640625 C 10.5625 -0.984375 8.71875 0.34375 5.03125 0.34375 C 4.195312 0.34375 3.40625 0.210938 2.65625 -0.046875 C 1.90625 -0.304688 1.363281 -0.5625 1.03125 -0.8125 L 0.53125 -1.234375 L 2.15625 -3.984375 C 2.28125 -3.878906 2.441406 -3.753906 2.640625 -3.609375 C 2.835938 -3.460938 3.191406 -3.265625 3.703125 -3.015625 C 4.222656 -2.765625 4.671875 -2.640625 5.046875 -2.640625 C 5.890625 -2.640625 6.3125 -2.921875 6.3125 -3.484375 C 6.3125 -3.742188 6.203125 -3.941406 5.984375 -4.078125 C 5.773438 -4.222656 5.414062 -4.382812 4.90625 -4.5625 C 4.394531 -4.75 3.992188 -4.921875 3.703125 -5.078125 C 2.984375 -5.453125 2.410156 -5.878906 1.984375 -6.359375 C 1.554688 -6.835938 1.34375 -7.472656 1.34375 -8.265625 C 1.34375 -9.453125 1.800781 -10.375 2.71875 -11.03125 C 3.632812 -11.6875 4.875 -12.015625 6.4375 -12.015625 Z M 6.4375 -12.015625 "/></g></g></g></svg>